<svg width="402" height="212" viewBox="0 0 402 212" fill="none" xmlns="http://www.w3.org/2000/svg">
<path d="M49.2535 50.1875C49.0841 45.2198 52.9739 41.0554 57.9416 40.8861L284.81 33.1522C289.778 32.9829 293.942 36.8727 294.111 41.8404L294.929 65.8264C295.55 84.0413 281.287 99.3107 263.072 99.9316L60.1902 106.848C55.2225 107.017 51.0582 103.127 50.8888 98.1596L49.2535 50.1875Z" fill="#D37662"/>
<path d="M345.785 153.968C345.953 158.935 342.062 163.098 337.094 163.266L110.223 170.931C105.256 171.099 101.093 167.208 100.925 162.24L100.114 138.254C99.4989 120.039 113.766 104.774 131.981 104.159L334.865 97.3039C339.833 97.1361 343.996 101.027 344.164 105.995L345.785 153.968Z" fill="#677B64"/>
<path d="M180.315 125.876C179.364 125.428 178.354 125.054 177.288 124.754C176.22 124.43 175.206 124.284 174.247 124.317C172.952 124.361 171.93 124.684 171.182 125.286C170.458 125.887 170.113 126.691 170.148 127.699C170.172 128.418 170.458 129.045 171.004 129.579C171.55 130.088 172.237 130.533 173.067 130.913C173.895 131.269 174.771 131.612 175.695 131.94C176.496 132.201 177.288 132.522 178.069 132.904C178.874 133.261 179.598 133.716 180.241 134.271C180.884 134.825 181.401 135.528 181.79 136.379C182.202 137.206 182.429 138.243 182.472 139.49C182.518 140.857 182.214 142.128 181.557 143.303C180.9 144.454 179.935 145.388 178.663 146.103C177.39 146.819 175.819 147.209 173.948 147.273C172.868 147.309 171.797 147.226 170.733 147.022C169.694 146.817 168.699 146.527 167.75 146.151C166.8 145.751 165.92 145.301 165.111 144.8L166.87 141.462C167.46 141.874 168.133 142.248 168.889 142.582C169.645 142.916 170.422 143.178 171.221 143.367C172.019 143.532 172.766 143.603 173.462 143.579C174.205 143.554 174.933 143.409 175.644 143.144C176.38 142.879 176.978 142.463 177.439 141.895C177.924 141.326 178.151 140.586 178.12 139.674C178.094 138.931 177.857 138.302 177.407 137.789C176.957 137.276 176.378 136.84 175.67 136.48C174.984 136.095 174.228 135.76 173.402 135.476C172.576 135.192 171.725 134.873 170.848 134.519C169.995 134.163 169.2 133.722 168.462 133.195C167.722 132.644 167.111 131.968 166.628 131.168C166.144 130.368 165.882 129.369 165.841 128.169C165.792 126.73 166.085 125.472 166.721 124.393C167.357 123.315 168.252 122.444 169.406 121.78C170.584 121.116 171.952 120.733 173.509 120.632C175.356 120.569 176.935 120.744 178.246 121.155C179.58 121.542 180.761 122.03 181.789 122.619L180.315 125.876ZM185.355 120.373L202.877 119.776L203.014 123.806L196.25 124.036L197.004 146.199L192.831 146.342L192.076 124.178L185.492 124.403L185.355 120.373ZM206.011 132.817C205.949 130.994 206.238 129.267 206.879 127.637C207.52 126.006 208.431 124.546 209.612 123.257C210.793 121.968 212.175 120.949 213.758 120.198C215.365 119.423 217.091 119.004 218.938 118.941C220.761 118.879 222.488 119.181 224.12 119.845C225.775 120.486 227.235 121.408 228.501 122.614C229.79 123.819 230.811 125.213 231.561 126.796C232.335 128.379 232.753 130.082 232.815 131.905C232.878 133.752 232.577 135.491 231.912 137.122C231.272 138.753 230.349 140.213 229.144 141.503C227.962 142.768 226.568 143.776 224.96 144.527C223.376 145.254 221.673 145.648 219.85 145.71C217.979 145.773 216.228 145.497 214.598 144.88C212.968 144.239 211.52 143.34 210.256 142.182C208.991 141.001 207.983 139.618 207.233 138.035C206.482 136.427 206.075 134.688 206.011 132.817ZM210.328 132.67C210.373 133.965 210.642 135.169 211.136 136.281C211.654 137.392 212.347 138.365 213.216 139.2C214.084 140.011 215.078 140.637 216.198 141.079C217.318 141.522 218.525 141.721 219.82 141.676C221.068 141.634 222.223 141.354 223.286 140.838C224.373 140.321 225.31 139.628 226.097 138.761C226.883 137.87 227.485 136.853 227.902 135.71C228.343 134.566 228.542 133.347 228.498 132.052C228.453 130.732 228.171 129.517 227.653 128.406C227.135 127.295 226.454 126.322 225.609 125.486C224.764 124.65 223.782 124.011 222.662 123.569C221.542 123.127 220.347 122.928 219.075 122.971C217.804 123.014 216.625 123.295 215.538 123.812C214.451 124.329 213.502 125.034 212.692 125.926C211.906 126.817 211.305 127.846 210.888 129.013C210.471 130.156 210.284 131.375 210.328 132.67ZM245.338 118.331C246.777 118.282 248.103 118.429 249.315 118.772C250.526 119.091 251.564 119.595 252.428 120.286C253.292 120.977 253.97 121.843 254.462 122.883C254.977 123.898 255.257 125.077 255.303 126.42C255.338 127.452 255.217 128.488 254.94 129.53C254.664 130.572 254.18 131.525 253.489 132.389C252.822 133.253 251.921 133.956 250.787 134.499C249.653 135.041 248.234 135.342 246.531 135.4L242.753 135.529L243.063 144.631L238.854 144.775L237.962 118.582L245.338 118.331ZM246.358 131.371C247.293 131.34 248.068 131.169 248.682 130.86C249.295 130.527 249.762 130.127 250.082 129.66C250.426 129.192 250.662 128.703 250.788 128.195C250.938 127.661 251.006 127.167 250.99 126.711C250.975 126.279 250.887 125.814 250.726 125.315C250.565 124.793 250.308 124.309 249.957 123.865C249.604 123.396 249.111 123.017 248.477 122.726C247.867 122.435 247.106 122.305 246.194 122.336L242.309 122.468L242.616 131.499L246.358 131.371ZM250.976 133.7L258.031 144.122L253.173 144.287L245.978 133.978L250.976 133.7ZM262.065 117.761L279.443 117.169L279.58 121.199L266.412 121.647L266.65 128.627L278.379 128.228L278.517 132.294L266.788 132.693L267.029 139.781L280.701 139.315L280.839 143.345L262.957 143.954L262.065 117.761Z" fill="white"/>
<path d="M100.819 62.8798C99.8671 62.4319 98.8577 62.0581 97.7909 61.7582C96.7233 61.4343 95.7097 61.2887 94.7503 61.3214C93.4551 61.3655 92.4335 61.6884 91.6855 62.2902C90.9615 62.8912 90.6167 63.6954 90.651 64.7028C90.6755 65.4224 90.961 66.0491 91.5075 66.5828C92.0531 67.0925 92.7407 67.5374 93.5701 67.9174C94.3987 68.2734 95.2748 68.6158 96.1985 68.9445C96.9999 69.2054 97.7913 69.5267 98.5727 69.9083C99.3773 70.2651 100.101 70.7208 100.744 71.2752C101.388 71.8296 101.904 72.5325 102.293 73.3837C102.705 74.2102 102.933 75.247 102.975 76.4943C103.022 77.8615 102.717 79.1326 102.061 80.3076C101.403 81.4587 100.439 82.392 99.1662 83.1078C97.8938 83.8235 96.3222 84.2132 94.4512 84.2769C93.3719 84.3136 92.3004 84.23 91.2368 84.0261C90.1973 83.8214 89.2028 83.531 88.2535 83.1551C87.3033 82.7552 86.4235 82.3049 85.614 81.8041L87.3734 78.4663C87.9638 78.8785 88.6369 79.2518 89.3927 79.5863C90.1485 79.9208 90.9259 80.1825 91.7248 80.3714C92.5228 80.5363 93.2697 80.6069 93.9653 80.5833C94.7088 80.5579 95.4363 80.4131 96.1478 80.1487C96.8832 79.8836 97.4813 79.467 97.9423 78.899C98.4272 78.3301 98.6541 77.59 98.6231 76.6785C98.5978 75.9349 98.3603 75.3067 97.9106 74.7937C97.4608 74.2807 96.8817 73.8441 96.173 73.484C95.4875 73.0991 94.7317 72.7647 93.9055 72.4806C93.0794 72.1966 92.228 71.8773 91.3515 71.523C90.4989 71.1678 89.7034 70.7266 88.965 70.1994C88.2259 69.6482 87.6145 68.9726 87.131 68.1726C86.6475 67.3726 86.3853 66.373 86.3445 65.1737C86.2955 63.7345 86.5889 62.4758 87.2245 61.3975C87.8602 60.3193 88.7551 59.4483 89.9092 58.7847C91.0873 58.1202 92.455 57.7374 94.0125 57.6364C95.8594 57.5735 97.4383 57.7479 98.749 58.1595C100.083 58.5463 101.264 59.0344 102.293 59.6238L100.819 62.8798ZM108.726 83.5027L107.803 56.3744L107.839 56.3732L122.622 75.8614L120.81 75.5269L134.175 55.4765L134.247 55.474L135.171 82.6023L130.997 82.7444L130.396 65.0786L130.757 67.2276L121.75 80.934L121.678 80.9365L111.544 67.8817L112.197 65.8784L112.792 83.3643L108.726 83.5027ZM141.46 56.165L145.669 56.0217L146.561 82.2145L142.351 82.3578L141.46 56.165ZM160.254 55.5251C161.694 55.4761 163.019 55.6231 164.232 55.966C165.443 56.285 166.481 56.79 167.345 57.481C168.209 58.172 168.887 59.0374 169.379 60.0773C169.893 61.0923 170.174 62.2715 170.219 63.6147C170.255 64.6461 170.134 65.6828 169.857 66.7248C169.58 67.7669 169.097 68.7199 168.406 69.5839C167.739 70.4471 166.838 71.1501 165.704 71.693C164.57 72.236 163.151 72.5364 161.448 72.5944L157.67 72.723L157.98 81.8257L153.771 81.9691L152.879 55.7762L160.254 55.5251ZM161.275 68.5659C162.21 68.5341 162.985 68.3636 163.599 68.0546C164.212 67.7215 164.678 67.3214 164.999 66.8542C165.343 66.3862 165.578 65.898 165.705 65.3893C165.855 64.8559 165.922 64.3614 165.907 63.9056C165.892 63.4739 165.804 63.0086 165.643 62.5098C165.481 61.987 165.225 61.5034 164.873 61.0591C164.521 60.5909 164.028 60.2114 163.394 59.9208C162.784 59.6294 162.023 59.4992 161.111 59.5303L157.225 59.6626L157.533 68.6933L161.275 68.5659ZM165.893 70.8942L172.947 81.3161L168.09 81.4815L160.895 71.1724L165.893 70.8942ZM174.689 55.0336L192.211 54.4371L192.348 58.4667L185.584 58.697L186.339 80.8602L182.165 81.0023L181.411 58.8391L174.827 59.0633L174.689 55.0336ZM218.836 53.5306L219.728 79.7234L215.518 79.8667L215.14 68.7492L202.259 69.1877L202.638 80.3053L198.428 80.4486L197.536 54.2558L201.746 54.1124L202.122 65.158L215.003 64.7195L214.627 53.6739L218.836 53.5306ZM226.032 53.2856L230.241 53.1423L231.133 79.3351L226.923 79.4784L226.032 53.2856ZM237.15 58.8865L235.068 58.0209C235.555 57.524 235.94 56.8385 236.222 55.9644C236.505 55.0903 236.548 54.2363 236.351 53.4025L239.509 53.0428C239.676 53.7096 239.664 54.4304 239.475 55.2053C239.285 55.9802 238.985 56.6988 238.575 57.3611C238.165 57.9995 237.69 58.5079 237.15 58.8865ZM258.228 57.5205C257.276 57.0726 256.267 56.6988 255.2 56.3989C254.132 56.075 253.119 55.9294 252.159 55.9621C250.864 56.0062 249.842 56.3291 249.094 56.9309C248.37 57.5319 248.025 58.3361 248.06 59.3435C248.084 60.0631 248.37 60.6898 248.916 61.2235C249.462 61.7332 250.149 62.1781 250.979 62.5581C251.807 62.9141 252.684 63.2565 253.607 63.5852C254.409 63.8461 255.2 64.1674 255.981 64.549C256.786 64.9058 257.51 65.3615 258.153 65.9159C258.797 66.4703 259.313 67.1732 259.702 68.0244C260.114 68.8509 260.342 69.8877 260.384 71.135C260.431 72.5022 260.126 73.7733 259.469 74.9483C258.812 76.0994 257.847 77.0327 256.575 77.7484C255.303 78.4642 253.731 78.8539 251.86 78.9176C250.781 78.9543 249.709 78.8707 248.646 78.6668C247.606 78.462 246.612 78.1717 245.662 77.7958C244.712 77.3959 243.832 76.9456 243.023 76.4448L244.782 73.107C245.373 73.5192 246.046 73.8925 246.801 74.227C247.557 74.5614 248.335 74.8231 249.134 75.0121C249.932 75.177 250.678 75.2476 251.374 75.224C252.118 75.1986 252.845 75.0538 253.557 74.7894C254.292 74.5243 254.89 74.1077 255.351 73.5397C255.836 72.9708 256.063 72.2307 256.032 71.3192C256.007 70.5756 255.769 69.9474 255.319 69.4344C254.87 68.9214 254.29 68.4848 253.582 68.1247C252.896 67.7398 252.14 67.4054 251.314 67.1213C250.488 66.8372 249.637 66.518 248.76 66.1637C247.908 65.8085 247.112 65.3673 246.374 64.8401C245.635 64.2889 245.023 63.6133 244.54 62.8133C244.056 62.0133 243.794 61.0137 243.753 59.8143C243.704 58.3752 243.998 57.1165 244.633 56.0382C245.269 54.96 246.164 54.089 247.318 53.4254C248.496 52.7609 249.864 52.3781 251.421 52.2771C253.268 52.2142 254.847 52.3886 256.158 52.8002C257.492 53.187 258.673 53.6751 259.702 54.2645L258.228 57.5205Z" fill="white"/>
</svg>
